<?xml version="1.0" encoding="UTF-8"?>
<!DOCTYPE svg PUBLIC "-//W3C//DTD SVG 1.1//EN" "http://www.w3.org/Graphics/SVG/1.1/DTD/svg11.dtd">
<!-- Creator: CorelDRAW 2019 (64-Bit) -->
<svg xmlns="http://www.w3.org/2000/svg" xml:space="preserve" width="119.295mm" height="188.637mm" version="1.1" style="shape-rendering:geometricPrecision; text-rendering:geometricPrecision; image-rendering:optimizeQuality; fill-rule:evenodd; clip-rule:evenodd"
viewBox="0 0 11921.07 18850.35"
 xmlns:xlink="http://www.w3.org/1999/xlink"
 xmlns:xodm="http://www.corel.com/coreldraw/odm/2003">
 <defs>
  <style type="text/css">
   <![CDATA[
    .fil0 {fill:none}
    .fil2 {fill:#FEA419}
    .fil1 {fill:white}
   ]]>
  </style>
   <clipPath id="id0">
    <path d="M539.69 0l10841.69 0c296.83,0 539.69,242.86 539.69,539.69l0 17770.97c0,296.83 -242.86,539.69 -539.69,539.69l-10841.69 0c-296.83,0 -539.69,-242.86 -539.69,-539.69l0 -17770.97c0,-296.83 242.86,-539.69 539.69,-539.69z"/>
   </clipPath>
    <clipPath id="id1">
     <path d="M539.69 0l10841.69 0c296.83,0 539.69,242.86 539.69,539.69l0 17770.97c0,296.83 -242.86,539.69 -539.69,539.69l-10841.69 0c-296.83,0 -539.69,-242.86 -539.69,-539.69l0 -17770.97c0,-296.83 242.86,-539.69 539.69,-539.69z"/>
    </clipPath>
    <clipPath id="id2">
     <path d="M539.69 0l10841.69 0c296.83,0 539.69,242.86 539.69,539.69l0 17770.97c0,296.83 -242.86,539.69 -539.69,539.69l-10841.69 0c-296.83,0 -539.69,-242.86 -539.69,-539.69l0 -17770.97c0,-296.83 242.86,-539.69 539.69,-539.69z"/>
    </clipPath>
    <clipPath id="id3">
     <path d="M812.41 14071.9l10296.25 0 0 2930.14 -10296.25 0 0 -2930.14z"/>
    </clipPath>
 </defs>
 <g id="Layer_x0020_1">
  <metadata id="CorelCorpID_0Corel-Layer"/>
  <g>
  </g>
  <g style="clip-path:url(#id0)">
   <g>
   </g>
   <g style="clip-path:url(#id1)">
    <image x="-12466.7" y="-115.06" width="33920.84" height="19080.47" xlink:href="CARD 07_Images\CARD 07_ImgID1.png"/>
   </g>
   <g style="clip-path:url(#id2)">
   </g>
  </g>
  <path class="fil0" d="M539.69 0l10841.69 0c296.83,0 539.69,242.86 539.69,539.69l0 17770.97c0,296.83 -242.86,539.69 -539.69,539.69l-10841.69 0c-296.83,0 -539.69,-242.86 -539.69,-539.69l0 -17770.97c0,-296.83 242.86,-539.69 539.69,-539.69z"/>
  <g>
   <g style="clip-path:url(#id3)">
    <image x="812.41" y="14071.9" width="10296.25" height="2930.14" xlink:href="CARD 07_Images\CARD 07_ImgID2.png"/>
   </g>
  </g>
  <g>
   <path class="fil1" d="M8914.44 15469.15l0 -454.46c111.87,0 273.46,-4.61 340.68,106.98 65.16,108.14 39.13,325.38 -204.96,337.35 -44.09,2.17 -86.98,10.12 -135.71,10.12zm-495.15 -813.93l0 1834.73 47.49 0 0 -115.3 33.91 0 0 -44.09 186.53 0 0 61.05 98.35 0 0 64.43 88.18 0 0 33.91 40.7 0 0 -698.62c3.05,3.52 -0.41,-1.03 4.62,5.56 22.17,29.04 171.64,271.68 199.52,315.98l101.74 162.79c7.37,11.49 16.49,20.78 19.7,34.56l47.48 0 0 -115.31 13.57 0 0 -40.69 16.96 0 0 40.69 13.56 0 0 115.31 27.13 0 0 -61.04c32.06,0 23.74,-11.72 23.74,111.91l64.43 0 0 64.43c10.62,-0.88 20.36,-2.32 20.36,-13.56l0 -135.65 115.3 0 0 67.82c0,24.56 3.4,33.97 3.4,57.66l16.96 0 3.39 -67.83 57.66 0 0 50.87c45.42,0 37.3,9.15 37.3,-54.26l23.74 0 3.39 27.13c9.89,2.3 23.14,5.89 33.92,6.79l0 -78 54.26 0c-3.17,-11.84 -17.82,-25.14 -26.08,-34.97 -10.09,-11.99 -17.6,-21.66 -27.41,-33.65l-159.71 -206.56c-53.96,-72.13 -131.42,-174.79 -186.27,-241.04 -13.33,-16.11 -12.46,-22.03 -21.07,-39.97 74.84,0 171,-53.41 216.23,-99.17 16.93,-17.13 39.25,-36.42 53.66,-54.86 65.8,-84.21 123.51,-185.07 123.51,-300.42 0,-149.05 -1.6,-288.81 -89.59,-405.56 -72.04,-95.59 -140.91,-139.44 -250.51,-183.59 -57.63,-23.21 -161.05,-48.44 -239.83,-48.44l-773.24 0c-7.9,0 -16.96,9.05 -16.96,16.97z"/>
   <path class="fil1" d="M2677.67 15469.15l0 -454.46c117.45,0 286.22,-3.13 345.99,111.86 38.78,74.61 37.8,167.29 -9.5,238.2 -41.48,62.18 -120.11,90.48 -197.38,94.27 -45.94,2.27 -88.59,10.12 -139.11,10.12zm-488.35 -827.5c-1.77,7.6 -3.4,7.79 -3.4,16.96l0 1831.34 44.09 0 0 -115.3 37.3 0 0 -44.09 186.53 0 0 61.05 98.36 0 0 64.43 88.17 0 0 33.91 37.3 0 0 -702.01c7.15,5.25 14.87,20.7 21.04,29.84 7.93,11.76 13,20.98 21.05,33.22l40.4 64.73c31.67,53.59 242.32,378.85 246.48,394.48l47.48 0 0 -115.31 13.57 0 0 -40.69 16.96 0 0 40.69 13.57 0 0 115.31 27.13 0 0 -61.04 20.35 0 3.39 111.91 61.05 0 3.4 64.43c10.61,-0.88 20.35,-2.32 20.35,-13.56l0 -135.65 115.31 0 0 115.31c0,12.05 6.61,10.17 20.35,10.17l4.12 -67.78 53.53 -0.05c0,59.48 -7.81,50.87 37.3,50.87l0 -54.26 27.14 0 0 27.13c14.63,1.21 21.55,6.43 37.3,6.79l0 -78 50.86 0c-1.1,-13.25 -8.35,-18.52 -22.86,-34.8 -45.15,-50.65 -243.9,-311.5 -293.51,-377.98 -18.25,-24.45 -33.09,-46.18 -52.21,-69.87 -18.35,-22.73 -41.26,-42.27 -48.55,-73.54 59.89,0 121.15,-30.89 158.75,-54.91 25.81,-16.5 25.1,-18.29 44.26,-33.75l42.02 -39.37c71.12,-70.7 148.37,-203.37 148.37,-333.2 0,-97.15 -3.61,-211.73 -31.9,-286.9 -22.44,-59.61 -70.6,-140.35 -118.33,-180.11 -8.22,-6.86 -10.54,-7.34 -18.55,-15.36 -87.81,-87.91 -288.71,-148.43 -411.16,-148.43 -83.84,0 -764.83,-5.14 -786.8,3.4z"/>
   <path class="fil1" d="M9867.42 14655.21l0 1817.78c0,7.81 2.36,10.17 10.17,10.17l91.56 0c7.81,0 10.17,-2.36 10.17,-10.17l0 -98.35 122.09 0 0 61.05 20.35 0 0 -33.92c64.41,0 54.26,9.46 54.26,-44.09l132.27 0 0 125.48 101.74 0c14.47,0 10.17,-13.02 10.17,-44.09l118.71 0c0.39,17.87 -0.06,16.96 20.35,16.96 7.81,0 10.17,-2.36 10.17,-10.17l0 -81.39 115.31 0 0 -108.53c27.59,0 52.08,-16.96 74.61,-16.96 8.06,0 25.03,6.22 35.28,8.81 16.31,4.12 21.25,8.14 39.33,8.14l0 64.44 30.52 0 0 -196.71 -512.1 0 0 -322.17 474.79 0 0 -413.76 -474.79 0 0 -328.96 501.92 0 0 -413.76 -976.72 0c-7.81,0 -10.17,2.37 -10.17,10.18z"/>
   <path class="fil1" d="M3623.88 16472.99l101.74 0c7.81,0 10.17,-2.36 10.17,-10.18l0 -98.34 122.09 0 0 64.43c23.88,0 20.35,2.95 20.35,-37.3l54.26 0 0 -44.1 132.27 0 0 125.49 111.91 0 0 -44.09 118.71 0 0 16.96 30.52 0 0 -88.18 115.31 0 0 -108.52c115.33,-26.87 33.9,-26.87 149.22,0l0 61.04 30.52 0 0 -196.7 -512.1 0 0 -322.18 474.79 0 0 -410.36 -474.79 0 0 -328.96 491.75 0c7.81,0 10.17,-2.36 10.17,-10.17l0 -403.58 -986.89 0 0 1834.75z"/>
   <polygon class="fil1" points="4743.03,16472.99 4851.56,16472.99 4851.56,16364.47 4966.86,16364.47 4966.86,16428.91 4993.99,16428.91 4993.99,16391.6 5048.26,16391.6 5048.26,16347.5 5180.52,16347.5 5180.52,16472.99 5289.04,16472.99 5289.04,16428.91 5414.53,16428.91 5414.53,16445.86 5441.66,16445.86 5441.66,16354.29 5468.79,16354.29 5468.79,16303.42 5485.75,16303.42 5485.75,16354.29 5550.18,16354.29 5550.18,16242.38 5685.83,16245.77 5685.83,16310.2 5729.92,16310.2 5729.92,16113.5 5228,16113.5 5228,15791.32 5702.79,15791.32 5702.79,15380.96 5228,15380.96 5228,15052 5719.75,15052 5719.75,14638.25 4743.03,14638.25 "/>
   <path class="fil1" d="M6208.11 16106.72c0,14.77 14.37,10.17 47.48,10.17 16.61,0 10.17,-34.63 10.17,-67.83l3.4 0c0,79.11 -11.54,67.83 47.48,67.83 0,55.02 -12.98,44.09 71.22,44.09l0 142.44c0,12.47 7.23,10.17 23.74,10.17 32.99,0 52.3,-3.4 84.78,-3.4l0 223.83 47.48 0 0 -61.04 78 0 0 61.04 37.3 0 0 -152.61c20.85,0 29.05,2.49 34.01,-13.47 7.34,-23.65 3.3,-510.14 3.3,-576.63l515.49 0 0 -403.57 -515.49 0 0 -301.84 569.76 0 0 -447.66 -1058.11 0 0 1468.48z"/>
   <path class="fil1" d="M1056.59 16113.5l61.05 0c0,-22.88 -5.22,-22.75 13.57,-27.13l0 27.13 23.73 0c0,59.16 -13.51,47.49 71.22,47.49l0 149.21c0,13.85 10.63,10.18 37.3,10.18l0 -27.13 88.18 0 0 240.78 40.7 0 0 -50.86c0,-12.97 1.04,-1.24 -3.4,-10.17l81.4 0 0 61.04 37.3 0 0 -149.21c38.69,0 30.52,7.42 30.52,-64.43 0,-26 0.02,-52 0,-78 -0.02,-29.59 3.58,-48.68 3.47,-74.53l-0.2 -346.12c-0.24,-15.1 -4,-30.41 10.3,-30.41l508.71 0 0 -403.57 -518.88 0 0 -301.84 573.13 0 0 -447.66 -1058.11 0 0 1475.25z"/>
   <path class="fil2" d="M7649.45 15092.69c12.38,-2.88 35.33,-21.81 49.43,-31.95 17.11,-12.3 32.34,-24.78 48.92,-35.87 0,16.98 -4.04,44.1 -5.84,58.6 -6.24,50.48 6.55,24.32 -72.63,90.16 -9.19,7.65 -7.8,10.8 -19.89,14.03l0 50.87c26.36,-17.66 67.61,-57.43 98.35,-78l0 94.96c-33.45,22.39 -64.76,48.73 -98.35,71.22l0 44.08c10.56,-2.82 79.69,-55.33 98.35,-67.82 0,24.95 0.22,49.92 0.25,74.85 0.02,28.7 -2.53,21.36 -33.65,44.37 -75.9,56.07 -64.95,33.19 -64.95,91.05 14.45,-3.86 80.35,-55.77 98.35,-67.82l0 98.35c-8.64,2.31 -16.79,9.79 -25.1,15.59l-73.25 52.23 0 47.49 71.22 -50.87c8.59,-6.53 15.23,-13.78 27.13,-16.96 0,70.31 12.91,76.97 -17.95,117.72 -8.18,10.8 -26.44,45.07 -39.7,45.07l-156.01 0c0,128.28 -9.47,73.32 45.52,144.4 41.19,53.24 63.56,52 63.19,92.82l-0.42 417.56c0,44.65 31.54,23.84 30.93,74.2 -0.61,51.13 -11.02,44.26 57.49,44.26l0 -91.56c0,-11.6 28.21,-31.49 37.3,-33.92 40.32,26.99 34.23,34.38 33.98,57.59l-0.08 186.61c-0.17,31.75 3.41,56.51 3.41,91.55 14.38,3.84 26.16,16.17 44.09,20.35 0,-89.38 3.51,-168.36 3.4,-257.74 -0.06,-43.58 3.45,-81.85 3.39,-128.88 -0.04,-27.3 -2.32,-38.27 6.76,-57.68 5.65,-12.09 17.3,-34.25 20.38,-47.46l27.13 0 0 328.97 94.45 -105.63c13.39,-16.71 23.98,-14.71 24.46,-43.37l0.02 -471.38c2.21,-12.25 84.04,-96.45 95.58,-107.91 36.1,-35.89 26.27,-32.89 26.27,-109.37 -10.6,-0.89 -12.04,-3.4 -23.73,-3.4l-101.75 0 0 -1020.81c0,-21.3 -4.61,-33.74 -8.74,-52.3l-33.92 -156c-15.86,-71.37 -29.37,-139.56 -45.52,-208.83 -52.72,4.38 -170.73,140.72 -200.11,200.06 -15.27,30.82 -30.58,59.48 -43.59,92.07 -70.19,175.95 -44.57,292.29 -44.57,484.49z"/>
  </g>
 </g>
</svg>
